<svg xmlns="http://www.w3.org/2000/svg" width="500" height="124" viewBox="0 0 500 124"><title>Artboard 1</title><path d="M214.53677,102.1015c-.70318,10.109-6.66291,16.00272-15.74934,19.29375a41.5932,41.5932,0,0,1-10.23856,2.12409c-.28165.02724-.65756-.15614-.82759.25933H181.281c-1.42492-.62238-2.98615-.54389-4.47409-.85526a46.96087,46.96087,0,0,1-11.47331-3.874c-.93557-.468-1.10021-.18368-1.199.69171-.31422,2.78578-.33685,2.78311-3.15054,2.78311-3.77613-.00006-7.55238-.01692-11.32821.01475-.74509.0063-1.03007-.14868-1.02716-.9764q.04659-13.17642-.00079-26.353c-.00322-.87218.2902-1.038,1.0868-1.03153,4.37206.03524,8.74485.04276,13.1166-.00546.85787-.00941,1.17791.21583,1.25155,1.08146.20552,2.414.52957,4.81791.73279,7.23209a2.17468,2.17468,0,0,0,.99386,1.76037,28.52545,28.52545,0,0,0,17.90978,5.02174,22.429,22.429,0,0,0,8.47169-1.70675,8.57228,8.57228,0,0,0,3.57195-2.70086c2.032-2.75084,1.35225-5.82331-1.65337-7.42305a23.264,23.264,0,0,0-6.69622-2.03735c-5.342-1.02226-10.7626-1.60587-16.0615-2.87089a42.19375,42.19375,0,0,1-9.63893-3.38408c-7.88947-4.06846-11.33239-10.68417-10.80149-19.4522.59981-9.90565,6.29112-16.153,15.18077-19.59038,9.69959-3.75053,19.38947-3.01465,28.9021.963.329.13758.64816.29876.9767.43749a.866.866,0,0,0,.27577.00406c.07352-.4265.15359-.84931.2185-1.27448.34564-2.26538.34431-2.2658,2.68369-2.26592,3.81586-.00018,7.63191.02293,11.44734-.01729.873-.00916,1.22547.12872,1.22013,1.14388q-.07024,13.355-.00521,26.71067c.00388.93952-.23512,1.19854-1.18149,1.1872-4.332-.052-8.66545-.05812-12.99711.00442-.96632.014-1.19277-.35086-1.2837-1.192-.34583-3.19876-.75947-6.39006-1.11713-9.58761a1.47458,1.47458,0,0,0-.922-1.35407,28.34693,28.34693,0,0,0-19.03922-2.12585,10.87069,10.87069,0,0,0-5.41385,2.84486,6.759,6.759,0,0,0-1.88369,3.775c-.38405,2.4163.48474,4.05735,2.86409,5.34051a29.27646,29.27646,0,0,0,8.64258,2.56583c6.19831,1.17688,12.4793,1.953,18.52985,3.83855a35.10205,35.10205,0,0,1,7.52672,3.25C212.30246,88.3633,215.07065,94.42579,214.53677,102.1015ZM63.2274,92.71164c4.73578,10.79045-.13212,22.46255-11.36849,27.22854a33.7303,33.7303,0,0,1-13.24308,2.57468c-12.478.02615-24.95619.00843-37.43422.01165-.39387.00006-.78774.03882-1.18161.05957v-14.5502c2.49862.02553,4.99765.03391,7.49572.0865.82032.01729.623-.53539.62317-.96851q.0081-21.46024.0216-42.92049c.00127-.78265-.20419-1.01237-.9909-1.00176C4.767,63.26378,2.3833,63.21185,0,63.19268V48.881c11.92232.00315,23.84476-.02063,35.767.02117a36.79887,36.79887,0,0,1,16.50487,3.5222c11.78868,5.82986,13.632,23.10494,3.40549,30.92144-.18155.13879-.33873.30943-.55171.50621A19.29528,19.29528,0,0,1,63.2274,92.71164ZM23.12557,76.94119c-.01729.7585.15856,1.03057.97257,1.02183,3.8946-.04167,7.79041.01735,11.68477-.03385a11.92632,11.92632,0,0,0,6.162-1.57336,6.62558,6.62558,0,0,0,3.29673-6.54426,6.21784,6.21784,0,0,0-4.25-5.65891,9.73676,9.73676,0,0,0-2.87744-.72908c-4.762-.37592-9.53325-.07468-14.29906-.18187-.64646-.01455-.68122.33079-.67813.82238.01347,2.14618.00582,4.29248.0057,6.43871S23.17452,74.796,23.12557,76.94119Zm21.3206,16.99422A12.48248,12.48248,0,0,0,38.25289,92.033c-4.76211-.3016-9.53222-.05708-14.29767-.15-.74188-.01444-.82529.31113-.82286.92623.0188,4.76787.03445,9.53617-.01134,14.30373-.00856.88729.30906,1.03215,1.09189,1.01753,2.42291-.04526,4.84715-.01656,7.27091-.01693,1.27145,0,2.543-.00606,3.81435.00128a23.05611,23.05611,0,0,0,7.42712-.787A6.60545,6.60545,0,0,0,47.64,101.38121C47.97238,98.31542,47.14539,95.7084,44.44617,93.93541ZM231.10467,7.15594c.58319.63876,1.8066.22475,2.73774.18751.904-.03622,1.12065.24033,1.1147,1.12822-.04076,6.07894-.01783,12.15823-.02535,18.23741-.00116.90609.2868,2.0991-.17161,2.64408-.54838.65192-1.7881.13521-2.7233.22311a1.70151,1.70151,0,0,1-.35717-.00043c-.56221-.0666-.76755.16439-.75917.73946.02711,1.86707.03136,3.73512-.002,5.602-.011.61388.167.8282.80273.82522q7.2114-.0333,14.423.00152c.67637.0037.78174-.27734.76585-.84955-.032-1.15134.00206-2.30438-.013-3.45645-.01176-.90652.26224-2.04087-.177-2.65385-.42845-.59787-1.62917-.17525-2.48831-.19053-.55353-.00983-.76578-.15681-.75819-.73927q.04158-3.21782.00072-6.43653c-.00673-.56336.16712-.75286.74285-.74989q5.95983.0313,11.91984-.00243c.644-.00436.80854.21505.79253.82256-.03755,1.42935-.007,2.86046-.01414,4.29084-.00436.87212.28863,1.96735-.12714,2.55636-.45762.64847-1.62274.20849-2.47435.22178-.6319.00989-.81467.20928-.80388.82377.03276,1.8669.02827,3.73494.00219,5.602-.00777.55389.14862.76026.73381.75789q7.2114-.0292,14.42306.00152c.634.00285.82723-.21365.80691-.82668-.03816-1.151-.01123-2.3042-.01111-3.45645.00031-2.86719-.00024-2.905-2.9-2.859-.91871.01462-1.1992-.2094-1.19174-1.16717.0464-5.95962.01468-11.91984.03166-17.87975.00291-1.02086-.42917-2.31876.19224-2.98706.58343-.62741,1.88618-.21031,2.86264-.16936.89662.03761,1.034-.3229,1.02292-1.106-.02863-2.02249.0299-4.04619.05368-6.06947H253.5549c-.01116,2.10353.00394,4.20767-.0481,6.31017-.01723.698.23057.84634.885.85617,2.52633.03773,2.52591.06181,2.52561,2.62006-.00012,1.191-.02833,2.38287.01152,3.57255.02135.63506-.116.91482-.83906.90876-3.9299-.033-7.86023-.02615-11.79032-.00437-.61091.0034-.83869-.17337-.82747-.806q.04959-2.79789.00115-5.5971c-.00983-.59624.23615-.68893.76827-.73115.87509-.06945,2.04724.48862,2.54739-.27673.40278-.61638.10985-1.69322.10955-2.56577-.00055-1.42886-.0142-2.85773-.02232-4.28659H230.89479c.01189,1.38974.00552,2.78.042,4.16909C230.96163,5.33521,230.53834,6.53557,231.10467,7.15594Zm41.92633.0037c.57761.63342,1.80763.2273,2.73889.18368.95286-.0447,1.182.2583,1.17512,1.19-.04349,5.88124-.01068,11.763-.03276,17.64444-.00412,1.09814.46727,2.48327-.21164,3.21381-.58265.6268-1.95886.18107-2.981.16821-.67946-.00849-.88868.20188-.87285.879.04173,1.78731.0461,3.5771-.00182,5.36417-.01923.71907.16949.94612.92216.94437q16.09469-.03741,32.1895-.00364c.68431.00127.86841-.21486.86411-.87867-.02627-4.01356-.03221-8.0276.00382-12.041.007-.77409-.2859-.92-.97543-.90633-1.94648.03852-3.89605.06175-5.84071-.0094-.834-.03051-1.001.32187-1.03014,1.02189-.06594,1.58743-.19733,3.17213-.25939,4.75962-.02366.60485-.13788.91155-.86314.90488-3.89424-.0361-7.789-.02809-11.68344-.00528-.618.00364-.8299-.18338-.82086-.811q.0465-3.21836.00152-6.43762c-.00746-.60261.16421-.81583.80266-.84507,3.03686-.13909,3.03589-.16008,3.1768,2.87878a1.65058,1.65058,0,0,1,.00874.238c-.06091.60285.17519.84167.81055.82535,1.50917-.0387,3.02029-.0316,4.5299-.00267.59047.01135.8453-.13424.8413-.79295q-.03912-6.43763-.00121-12.87567c.00339-.62268-.17871-.83172-.80837-.81491-1.46926.03924-2.94295.064-4.40979-.00789-.83305-.04082-1.00642.30112-.9838,1.02523.021.6723-.08759,1.3477-.09281,2.02206-.00515.669-.45568.69445-.89238.60825-.98143-.19375-2.0957.51483-2.95478-.43112-.0606-.06672-.016-.23136-.01607-.3505-.00067-1.8678.02723-3.73621-.01493-5.603-.01589-.70519.25253-.86042.90367-.85605q5.72233.038,11.445-.00133c.66854-.005.895.20181.91767.86957.06206,1.82595.22693,3.64868.277,5.47469.02147.78295.30166,1.01516,1.06678.99459,1.82673-.04919,3.65632-.04483,5.48336-.00121.69075.0165.8734-.215.8683-.88359-.03439-4.52983-.03173-9.05992-.041-13.59H272.87565c-.005,1.39083-.03094,2.782-.00759,4.17225C272.884,5.339,272.47019,6.54467,273.031,7.15964ZM193.54113,1.3902c.00934,4.33051.0353,8.66138-.0165,12.99129-.01189.99259.145,1.4194,1.27624,1.34345a50.532,50.532,0,0,1,5.12249-.01244c.869.03,1.25629-.13551,1.26466-1.13472.018-2.14217.21668-4.28216.285-6.42488.02014-.63135.228-.81867.83779-.79338a27.80587,27.80587,0,0,0,3.09721-.00558c.82384-.05793.9707.2717.9679,1.01631q-.03847,10.13085.00492,20.26189c.00431.82742-.28656.982-1.02165.96014-1.58779-.04725-3.17844.009-4.76684-.02645-.605-.01352-.85119.15311-.84058.79284.03082,1.86677.03391,3.73482-.00151,5.60147-.01256.663.2649.78216.8541.78071q10.07135-.02486,20.14282-.00152c.5764.00121.86156-.10319.84688-.77421q-.061-2.79962-.00054-5.60129c.0131-.64592-.22257-.8097-.82863-.79763-1.66793.0333-3.33725-.003-5.00554.0202-.53642.00746-.78337-.12211-.782-.72453q.02439-10.36935-.00261-20.73875c-.00206-.68353.30209-.778.86733-.761,1.032.031,2.06841.05478,3.09776-.00631.74777-.0444.935.24738.96208.94752.08444,2.18215.25077,4.361.35754,6.5425.031.63282.24761.88189.92659.86539,1.9059-.04622,3.81465-.05168,5.72018.00158.75814.02117.924-.23779.91895-.951-.03427-4.84661-.0259-9.69359-.0313-14.54044H193.446A2.31735,2.31735,0,0,1,193.54113,1.3902ZM427.05027,109.03265q-.04787,6.32016-.00134,12.64085c.00474.702-.24713.86417-.9016.86211-6.32042-.01984-12.64108-.02778-18.96139.00831-.77809.00443-1.00617-.44507-1.30432-.96918q-6.803-11.95859-13.60111-23.91991a1.70177,1.70177,0,0,0-1.75515-1.03372c-2.1443.07036-4.29278.04319-6.4389.01073-.67733-.01019-.99283.11593-.98252.90324.0424,3.25912.03264,6.51921.00516,9.77857-.00534.63566.2128.82025.82268.81049,1.82813-.02924,3.65748.014,5.4853-.02263.71883-.01444,1.05671.10743,1.04719.9622-.04653,4.1734-.0367,8.34777-.00619,12.52147.00528.716-.1784.95546-.92562.95383q-15.205-.03386-30.41-.00158c-.71561.00139-.96214-.18841-.95643-.9329.03184-4.1737.03876-8.348-.00437-12.52147-.00862-.82984.28662-1.00041,1.03287-.98343,1.86732.0424,3.73888-.0444,5.60365.03737,1.01989.04471,1.337-.19685,1.32811-1.28868-.05726-7.07534-.02936-14.15136-.02942-21.22719-.00006-7.036-.0296-14.07237.03045-21.10793.00946-1.10893-.32769-1.328-1.33824-1.28546-1.865.07856-3.73639-.00716-5.60371.03707-.74037.01753-1.03154-.14753-1.02317-.96869.04216-4.13373.03543-8.26824.00443-12.40221-.00558-.74692.15432-1.02444.97555-1.022,12.68039.03724,25.3617-.0404,38.041.0865a30.352,30.352,0,0,1,16.44707,4.53773A20.66587,20.66587,0,0,1,423.334,69.90437c.95128,10.9094-3.80737,19.29326-13.58248,24.17511-.64476.322-.81037.51532-.38981,1.18562q3.79924,6.05463,7.50616,12.167a1.34049,1.34049,0,0,0,1.35741.69141c2.62339-.02238,5.24745.0125,7.87054-.02444C426.81375,108.089,427.05591,108.28889,427.05027,109.03265ZM406.178,70.4929a8.99654,8.99654,0,0,0-8.18028-7.04211c-4.711-.47976-9.44682-.0916-14.16986-.21043-.73843-.01856-.71228.404-.7107.91513.009,2.97935.00442,5.95876.00436,8.93817,0,2.9.02324,5.8002-.01583,8.6996-.01025.75759.17137,1.02268.98234,1.01431,4.09126-.04216,8.18325-.00467,12.27488-.02633a11.17288,11.17288,0,0,0,5.91114-1.572C405.57019,79.18345,407.12826,74.87988,406.178,70.4929Zm-51.38685,38.32453q-.03368,6.43789.003,12.87609c.005.72774-.29888.84118-.92532.84039q-16.2742-.02048-32.5483.00546c-.75486.00158-.93066-.2555-.9258-.96311q.04241-6.13971-.00376-12.27985c-.0068-.75644.24306-.9451.95316-.93381,2.25682.036,4.51449.01334,6.882.01334-.68322-2.34781-1.34267-4.54688-1.9557-6.75882-.204-.73611-.743-.58252-1.23384-.58289q-9.83605-.007-19.672.00043c-1.06824.00115-2.36632-.31337-3.14265.17646-.8478.535-.75638,1.98992-1.11,3.03182-.36949,1.08868-.63233,2.21321-.98428,3.30838-.20607.6413-.03027.84306.63681.83445,2.14563-.02791,4.29248.01747,6.43768-.025.752-.01487,1.02226.162,1.01322.98143q-.06769,6.13935-.00328,12.27973c.0068.759-.24337.91834-.95437.91688q-15.37986-.032-30.75984.00116c-.78471.00182-.99914-.22-.99162-1.00612q.06-6.25874.00206-12.51831c-.00649-.76857.1875-1.03378.98683-1.00582,1.70681.05969,3.42157-.05611,5.12443.04538,1.07564.064,1.47042-.35014,1.81849-1.32441q9.8314-27.51733,19.73912-55.00732c1.01734-2.83134,1.01316-2.833,4.04862-2.8331,5.96125-.00018,11.92262.01777,17.88363-.02014a1.32614,1.32614,0,0,1,1.51221,1.05107q10.07235,28.31623,20.17576,56.62144c.41213,1.16123.90936,1.61437,2.163,1.517,1.65913-.129,3.33628-.009,5.00469-.04356C354.57684,108.00342,354.79449,108.18286,354.79116,108.81743ZM321.405,86.25662c-1.62443-5.05535-3.18541-10.13107-4.7683-15.19976-.82456-2.64032-1.64985-5.2804-2.5728-8.23427-2.52719,8.10276-4.92941,15.86181-7.38593,23.60369-.285.89821.06054.88195.72945.87928,4.40542-.01729,8.81109-.02736,13.21633.00686C321.50261,87.31921,321.69188,87.14942,321.405,86.25662ZM145.28534,121.65651c.01207.96615-.50542.8717-1.1198.871q-8.04816-.00864-16.09638-.00346c-5.36544-.00018-10.73106-.01765-16.09626.01832-.82481.00552-1.07467-.20248-1.06533-1.0504q.06724-6.08011-.00279-12.1612c-.01061-.84488.29469-.98228,1.02311-.96766,1.907.03822,3.81574-.01425,5.72267.02548.78865.01644,1.07545-.1374.79726-.99635-.58659-1.81121-1.10432-3.64559-1.61017-5.48155-.16943-.615-.40789-.90154-1.12556-.89857q-11.148.04559-22.2964.00965c-.587-.00115-.94248.10282-1.11707.75444-.52374,1.955-1.08048,3.90327-1.70462,5.8281-.246.75868.07965.77979.6447.77657,2.14612-.01237,4.29278.02069,6.43823-.0191.74994-.01389,1.0325.1636,1.02334.98828-.04489,4.05341-.03852,8.10773-.00418,12.16132.00643.75893-.16773,1.03184-.98125,1.02984q-15.38086-.03885-30.7619-.003c-.718.00145-.957-.18781-.95134-.9303.03215-4.21264.0393-8.42589-.00437-12.63835-.00874-.83791.30834-.97258,1.03353-.95541,1.78756.04234,3.57911-.04131,5.36411.03791.84676.03755,1.13945-.293,1.40478-1.03384q9.454-26.3935,18.95666-52.76955c.55062-1.531,1.14321-3.04838,1.6393-4.59681a.96042.96042,0,0,1,1.10736-.77306c6.79618.01808,13.59261.03021,20.38861-.013.82371-.00522.9855.43348,1.19126,1.01024q6.4407,18.0531,12.88925,36.10332c2.49473,6.989,5.00062,13.97423,7.45575,20.97715a1.38314,1.38314,0,0,0,1.62473,1.09426c1.78519-.07668,3.57668.00661,5.36411-.03743.69359-.01711.86381.22293.85968.88571C145.24967,113.15146,145.2322,117.40456,145.28534,121.65651ZM111.96635,86.556c-2.45215-7.79764-4.8784-15.60334-7.41329-23.7343-.76815,2.4584-1.43,4.57418-2.09043,6.69039q-2.60717,8.35444-5.20815,16.71076c-.14146.45586-.661,1.08637.45805,1.08176q6.857-.02822,13.71418.00079C112.03981,87.30762,112.15755,87.1638,111.96635,86.556ZM497.42611,100.1407c-4.13858,10.8277-12.19675,17.34569-23.14777,20.53875a48.34361,48.34361,0,0,1-13.41663,1.83317c-9.73775.03633-19.47574-.003-29.21342.03312-.98094.00364-1.27-.2478-1.25586-1.24488q.08535-6.02034-.00158-12.04237c-.015-.98986.31489-1.19386,1.21771-1.16408,1.90571.06285,3.81713-.03524,5.72182.04162,1.00224.04046,1.34242-.17064,1.33308-1.27685-.05981-7.07437-.03045-14.14948-.03057-21.22434s-.01941-14.14978.02275-21.2244c.00564-.94976-.2478-1.21582-1.188-1.18239-2.0245.07194-4.05372.00048-6.08021.03463-.67091.01135-.99708-.0902-.98968-.8911.03907-4.21277.02475-8.42608.01062-12.63915-.002-.56791.09942-.86338.77718-.85435,11.4832.15287,22.98289-.4561,34.4474.31247,9.10827.61061,17.38543,3.65469,24.10888,10.12251a32.33038,32.33038,0,0,1,9.35261,17.6A41.66627,41.66627,0,0,1,497.42611,100.1407ZM482.32687,79.11752c-1.39593-7.646-5.74991-12.635-13.30727-14.71684A45.49078,45.49078,0,0,0,456.967,63.22447c-1.013-.00358-1.345.19508-1.33641,1.28892.05575,7.0313.02851,14.06334.02857,21.09507q0,10.72638-.00328,21.45278c-.00042.57379-.08377,1.0817.80546,1.06909a58.92094,58.92094,0,0,0,9.73738-.56069c8.54667-1.54685,14.1482-6.74159,15.99647-15.07789A33.50114,33.50114,0,0,0,482.32687,79.11752Zm-211.3351,28.97156c-3.69576.05993-7.39327.00618-11.08969.03973-.72253.00661-.94249-.18217-.94134-.92835q.033-21.52431.00085-43.04879c-.00109-.76148.2663-.92563.96675-.9155,2.50371.03616,5.01009.07019,7.51162-.01261,1.02-.03379,1.25337.3525,1.30087,1.26192.25089,4.8013.572,9.599.81243,14.40074.04537.906.28953,1.21127,1.24518,1.19883q6.37884-.08316,12.75919-.001c.96724.01213,1.26891-.211,1.26472-1.22474q-.0595-14.3694-.001-28.73911c.00376-.97245-.21905-1.25725-1.22662-1.25385-11.12985.038-22.25994.0239-33.38991.024s-22.26006.00637-33.39-.01329c-.788-.00139-1.19357.048-1.18914,1.05q.06452,14.5482.00722,29.09683c-.00261.84682.24374,1.063,1.06981,1.05555,4.37213-.03906,8.74516-.04531,13.1171.00364.89717.01007,1.11706-.249,1.14915-1.12453.17913-4.88337.4586-9.7631.63178-14.64665.03319-.93739.36712-1.09723,1.20218-1.08012,2.50322.05119,5.00924.0609,7.51186-.0031.93836-.024,1.19659.24089,1.19453,1.18774q-.04567,21.2861.0034,42.57218c.00248,1.00048-.34328,1.153-1.22,1.14291-3.69624-.04271-7.39345.0003-11.08987-.03349-.76026-.007-1.02814.1761-1.01989.99017q.06259,6.2004.00012,12.4016c-.0088.853.26484,1.052,1.07921,1.05064q20.92832-.0343,41.85669.00237c.86727.0017,1.04361-.28462,1.03621-1.08644-.03725-4.05419-.04459-8.10918.004-12.16308C272.17016,108.3777,271.96252,108.07337,270.99177,108.08908Z" style="fill:#be1c1b"/></svg>